<svg width="20" height="23" viewBox="0 0 20 23" fill="none" xmlns="http://www.w3.org/2000/svg">
<path d="M0.273438 20.5007C0.273438 21.0634 0.496197 21.6031 0.892712 22.0009C1.28923 22.3988 1.82702 22.6224 2.38777 22.6224H17.886C18.4468 22.6224 18.9846 22.3988 19.3811 22.0009C19.7776 21.6031 20.0004 21.0634 20.0004 20.5007V8.48456H0.273438V20.5007ZM14.3628 11.8416C14.3633 11.7013 14.419 11.5669 14.5179 11.4677C14.6167 11.3686 14.7506 11.3126 14.8904 11.3121H16.6511C16.7909 11.3126 16.9248 11.3686 17.0237 11.4677C17.1225 11.5669 17.1783 11.7013 17.1788 11.8416V13.6083C17.1783 13.7486 17.1225 13.883 17.0237 13.9822C16.9248 14.0814 16.7909 14.1373 16.6511 14.1378H14.8923C14.7525 14.1373 14.6186 14.0814 14.5197 13.9822C14.4209 13.883 14.3651 13.7486 14.3646 13.6083L14.3628 11.8416ZM14.3628 17.4967C14.3633 17.3564 14.419 17.222 14.5179 17.1229C14.6167 17.0237 14.7506 16.9677 14.8904 16.9672H16.6511C16.7909 16.9677 16.9248 17.0237 17.0237 17.1229C17.1225 17.222 17.1783 17.3564 17.1788 17.4967V19.2635C17.1783 19.4037 17.1225 19.5381 17.0237 19.6373C16.9248 19.7365 16.7909 19.7924 16.6511 19.7929H14.8923C14.7525 19.7924 14.6186 19.7365 14.5197 19.6373C14.4209 19.5381 14.3651 19.4037 14.3646 19.2635L14.3628 17.4967ZM8.72703 11.8416C8.72703 11.701 8.78256 11.5661 8.88146 11.4665C8.98036 11.3669 9.11457 11.3107 9.25468 11.3102H11.0154C11.1552 11.3107 11.2891 11.3667 11.3879 11.4659C11.4868 11.565 11.5425 11.6994 11.543 11.8397V13.6065C11.5425 13.7467 11.4868 13.8811 11.3879 13.9803C11.2891 14.0795 11.1552 14.1354 11.0154 14.1359H9.25468C9.11489 14.1354 8.98097 14.0795 8.88212 13.9803C8.78327 13.8811 8.72753 13.7467 8.72703 13.6065V11.8416ZM8.72703 17.4967C8.72703 17.3561 8.78256 17.2212 8.88146 17.1216C8.98036 17.0221 9.11457 16.9659 9.25468 16.9654H11.0154C11.1552 16.9659 11.2891 17.0218 11.3879 17.121C11.4868 17.2202 11.5425 17.3545 11.543 17.4948V19.2616C11.5425 19.4018 11.4868 19.5362 11.3879 19.6354C11.2891 19.7346 11.1552 19.7905 11.0154 19.791H9.25468C9.11489 19.7905 8.98097 19.7346 8.88212 19.6354C8.78327 19.5362 8.72753 19.4018 8.72703 19.2616V17.4967ZM3.0913 11.8416C3.0918 11.7013 3.14755 11.5669 3.24639 11.4677C3.34524 11.3686 3.47916 11.3126 3.61895 11.3121H5.38152C5.52131 11.3126 5.65523 11.3686 5.75408 11.4677C5.85292 11.5669 5.90867 11.7013 5.90917 11.8416V13.6083C5.90867 13.7486 5.85292 13.883 5.75408 13.9822C5.65523 14.0814 5.52131 14.1373 5.38152 14.1378H3.61895C3.47916 14.1373 3.34524 14.0814 3.24639 13.9822C3.14755 13.883 3.0918 13.7486 3.0913 13.6083V11.8416ZM3.0913 17.4967C3.0918 17.3564 3.14755 17.222 3.24639 17.1229C3.34524 17.0237 3.47916 16.9677 3.61895 16.9672H5.38152C5.52131 16.9677 5.65523 17.0237 5.75408 17.1229C5.85292 17.222 5.90867 17.3564 5.90917 17.4967V19.2635C5.90867 19.4037 5.85292 19.5381 5.75408 19.6373C5.65523 19.7365 5.52131 19.7924 5.38152 19.7929H3.61895C3.47916 19.7924 3.34524 19.7365 3.24639 19.6373C3.14755 19.5381 3.0918 19.4037 3.0913 19.2635V17.4967ZM17.886 2.82756H15.7717V0.707829C15.7712 0.520577 15.697 0.341108 15.5652 0.208525C15.4334 0.0759421 15.2548 0.000990104 15.0682 0L13.6592 0C13.4723 0.000495578 13.2932 0.0752293 13.161 0.207866C13.0288 0.340502 12.9543 0.520253 12.9538 0.707829V2.82944H7.3181V0.707829C7.31761 0.520577 7.24339 0.341108 7.11161 0.208525C6.97983 0.0759421 6.80118 0.000990104 6.61457 0L5.20564 0C5.0187 0.000495578 4.83957 0.0752293 4.70739 0.207866C4.57521 0.340502 4.50073 0.520253 4.50024 0.707829V2.82944H2.38777C1.82734 2.82944 1.28983 3.0527 0.893373 3.45018C0.496912 3.84765 0.273933 4.38681 0.273438 4.94917L0.273438 7.07078H19.9985V4.94917C19.9985 4.38681 19.776 3.84745 19.3799 3.44963C18.9838 3.0518 18.4465 2.82806 17.886 2.82756Z" fill="#FF6600"/>
</svg>
