<svg width="32" height="19" viewBox="0 0 32 19" fill="none" xmlns="http://www.w3.org/2000/svg">
<path d="M17.6026 11.0907H16.8057V6.73364C16.8057 6.62859 16.7635 6.52784 16.6885 6.45356C16.6135 6.37927 16.5117 6.33754 16.4056 6.33754H15.7235C15.4864 6.33713 15.2546 6.40633 15.0572 6.53638L14.2906 7.04294C14.2468 7.07175 14.2092 7.1088 14.18 7.15199C14.1507 7.19518 14.1303 7.24365 14.1199 7.29465C14.1096 7.34564 14.1094 7.39816 14.1196 7.4492C14.1297 7.50023 14.1499 7.5488 14.179 7.59211L14.6237 8.25174C14.6528 8.29506 14.6902 8.33227 14.7338 8.36126C14.7775 8.39026 14.8264 8.41046 14.8779 8.42071C14.9294 8.43097 14.9825 8.43109 15.034 8.42105C15.0856 8.41101 15.1346 8.39102 15.1784 8.36221L15.2023 8.34643V11.0907H14.4053C14.2992 11.0907 14.1975 11.1324 14.1225 11.2067C14.0474 11.281 14.0053 11.3817 14.0053 11.4868V12.2758C14.0053 12.3809 14.0474 12.4816 14.1225 12.5559C14.1975 12.6302 14.2992 12.6719 14.4053 12.6719H17.6058C17.7119 12.6719 17.8137 12.6302 17.8887 12.5559C17.9637 12.4816 18.0059 12.3809 18.0059 12.2758V11.4868C18.0059 11.4345 17.9954 11.3827 17.9751 11.3345C17.9548 11.2862 17.9251 11.2424 17.8876 11.2056C17.8501 11.1688 17.8056 11.1397 17.7567 11.1199C17.7078 11.1002 17.6554 11.0903 17.6026 11.0907ZM30.4061 0H1.59386C1.17114 0 0.765739 0.166261 0.466832 0.462207C0.167924 0.758153 0 1.15954 0 1.57807L0 17.4219C0 17.8405 0.167924 18.2418 0.466832 18.5378C0.765739 18.8337 1.17114 19 1.59386 19H30.4061C30.8289 19 31.2343 18.8337 31.5332 18.5378C31.8321 18.2418 32 17.8405 32 17.4219V1.57807C32 1.15954 31.8321 0.758153 31.5332 0.462207C31.2343 0.166261 30.8289 0 30.4061 0ZM2.40036 16.636V13.4673C2.82065 13.4673 3.23683 13.5492 3.62513 13.7085C4.01343 13.8677 4.36625 14.1011 4.66344 14.3954C4.96063 14.6896 5.19638 15.039 5.35721 15.4234C5.51805 15.8079 5.60084 16.2199 5.60084 16.636H2.40036ZM2.40036 5.54535V2.37658H5.60084C5.60084 3.21699 5.26364 4.02298 4.66344 4.61724C4.06323 5.2115 3.24918 5.54535 2.40036 5.54535ZM16.0024 15.0517C14.6262 14.9388 13.3504 14.2933 12.4517 13.2552C11.553 12.2171 11.1038 10.8701 11.2017 9.50631C11.1038 8.1425 11.553 6.79548 12.4517 5.75738C13.3504 4.71929 14.6262 4.07382 16.0024 3.96096C17.3786 4.07382 18.6544 4.71929 19.5531 5.75738C20.4518 6.79548 20.9009 8.1425 20.8031 9.50631C20.9009 10.8701 20.4518 12.2171 19.5531 13.2552C18.6544 14.2933 17.3786 14.9388 16.0024 15.0517ZM29.6044 16.6297H26.4039C26.4039 15.7893 26.7411 14.9833 27.3413 14.3891C27.9415 13.7948 28.7556 13.461 29.6044 13.461V16.6297ZM29.6044 5.53904C28.7556 5.53904 27.9415 5.20518 27.3413 4.61092C26.7411 4.01666 26.4039 3.21068 26.4039 2.37027H29.6044V5.53904Z" fill="#FB6603"/>
</svg>
