<svg width="42" height="34" viewBox="0 0 42 34" fill="none" xmlns="http://www.w3.org/2000/svg">
<path d="M0 14.524V32.1599C0 32.435 0.109377 32.6989 0.30407 32.8935C0.498763 33.088 0.762823 33.1973 1.03816 33.1973H6.23326V12.4578H2.07632C1.52713 12.4578 1.00031 12.6752 0.611172 13.0624C0.222032 13.4497 0.00227407 13.9752 0 14.524ZM23.3575 11.4118H21.8014V8.81719C21.8014 8.74885 21.7878 8.68119 21.7615 8.6181C21.7352 8.55502 21.6967 8.49776 21.6481 8.44964C21.5996 8.40152 21.542 8.36348 21.4786 8.33772C21.4153 8.31196 21.3475 8.29899 21.2791 8.29956H20.2431C20.1057 8.29956 19.9739 8.35409 19.8768 8.45117C19.7796 8.54824 19.7251 8.6799 19.7251 8.81719V12.9668C19.7251 13.1041 19.7796 13.2358 19.8768 13.3328C19.9739 13.4299 20.1057 13.4844 20.2431 13.4844H23.3575C23.4949 13.4844 23.6267 13.4299 23.7238 13.3328C23.821 13.2358 23.8755 13.1041 23.8755 12.9668V11.9294C23.8755 11.7921 23.821 11.6605 23.7238 11.5634C23.6267 11.4663 23.4949 11.4118 23.3575 11.4118ZM32.2948 7.2643L21.9239 0.348259C21.5826 0.121168 21.1818 0 20.7718 0C20.3618 0 19.961 0.121168 19.6197 0.348259L9.23813 7.2643C8.95491 7.45305 8.72249 7.70849 8.56132 8.00812C8.40014 8.30776 8.31517 8.6424 8.31388 8.98257V33.1887H16.6106V23.8607C16.6106 23.5855 16.7199 23.3216 16.9146 23.1271C17.1093 22.9325 17.3734 22.8232 17.6487 22.8232H23.882C24.1573 22.8232 24.4214 22.9325 24.6161 23.1271C24.8108 23.3216 24.9202 23.5855 24.9202 23.8607V33.1973H33.2254V8.99116C33.2242 8.65099 33.1392 8.31635 32.978 8.01672C32.8168 7.71708 32.5844 7.46164 32.3012 7.27289L32.2948 7.2643ZM20.7632 16.5988C19.7366 16.5988 18.733 16.2946 17.8794 15.7246C17.0257 15.1547 16.3604 14.3446 15.9675 13.3968C15.5747 12.449 15.4719 11.406 15.6722 10.3998C15.8724 9.39365 16.3668 8.46941 17.0928 7.74399C17.8187 7.01857 18.7436 6.52456 19.7505 6.32441C20.7575 6.12427 21.8012 6.22699 22.7497 6.61959C23.6981 7.01218 24.5088 7.67701 25.0792 8.53002C25.6496 9.38302 25.954 10.3859 25.954 11.4118C25.954 12.7875 25.4071 14.1068 24.4337 15.0796C23.4602 16.0523 22.1399 16.5988 20.7632 16.5988ZM39.4501 12.4578H35.2975V33.2059H40.4883C40.6246 33.2059 40.7596 33.1791 40.8856 33.1269C41.0115 33.0748 41.126 32.9984 41.2224 32.902C41.3188 32.8057 41.3952 32.6914 41.4474 32.5655C41.4996 32.4396 41.5264 32.3047 41.5264 32.1685V14.524C41.5242 13.9752 41.3044 13.4497 40.9153 13.0624C40.5261 12.6752 39.9993 12.4578 39.4501 12.4578Z" fill="#4B4A54"/>
</svg>
