<svg width="48" height="36" viewBox="0 0 48 36" fill="none" xmlns="http://www.w3.org/2000/svg">
<path d="M47.5601 24.4739C47.5226 24.5424 47.4917 24.6142 47.4679 24.6885C47.2997 25.5248 46.8592 26.282 46.2154 26.8419C45.5717 27.4017 44.7606 27.7328 43.9089 27.7833C42.5095 27.8842 41.0972 27.8027 39.6484 27.8027C39.6342 25.4451 39.0281 23.1289 37.8858 21.0664C36.7435 19.004 35.1014 17.2614 33.1104 15.9986C33.4151 15.711 33.6942 15.4062 34.014 15.1551C35.0492 14.3273 36.3376 13.8803 37.6631 13.8889C39.2257 13.8889 40.7969 13.8223 42.3466 13.9747C43.6122 14.1116 44.7978 14.6597 45.7221 15.535C46.6463 16.4103 47.2581 17.5646 47.4634 18.8208C47.4869 18.9095 47.517 18.9963 47.5535 19.0805L47.5601 24.4739Z" fill="#4B4A54"/>
<path d="M23.7804 35.7307C21.7842 35.7307 19.788 35.7307 17.7918 35.7307C16.2262 35.7188 14.7284 35.0895 13.6243 33.9795C12.5202 32.8694 11.8991 31.3685 11.8958 29.8029C11.8098 28.3331 11.8999 26.8581 12.1641 25.4096C12.6281 23.4698 13.6748 21.7185 15.1636 20.3911C16.6523 19.0636 18.5119 18.2235 20.4921 17.9838C23.0264 17.6441 25.598 17.7035 28.1138 18.1598C30.0642 18.6168 31.8264 19.6633 33.161 21.1571C34.4955 22.6509 35.3377 24.5194 35.5728 26.5085C35.8173 28.0897 35.7832 29.7015 35.4719 31.2709C35.1517 32.5416 34.4174 33.6696 33.3853 34.4771C32.3531 35.2846 31.0816 35.7257 29.7711 35.7307C27.7727 35.7372 25.7766 35.7307 23.7804 35.7307Z" fill="#4B4A54"/>
<path d="M31.7115 7.95893C31.7098 9.00579 31.5014 10.042 31.0984 11.0082C30.6953 11.9744 30.1056 12.8515 29.3628 13.5893C28.62 14.327 27.7389 14.9109 26.7699 15.3074C25.8009 15.7039 24.7631 15.9052 23.7162 15.8999C21.6186 15.8744 19.6158 15.0222 18.1431 13.5284C16.6705 12.0346 15.8469 10.02 15.8516 7.92245C15.8516 6.86821 16.0623 5.82458 16.471 4.85278C16.8797 3.88097 17.4785 3.00056 18.232 2.26313C18.9855 1.52571 19.8785 0.946124 20.8589 0.558385C21.8393 0.170647 22.8874 -0.0174363 23.9415 0.00513421C26.0217 0.0451338 28.0028 0.901744 29.4566 2.38997C30.9104 3.87819 31.7203 5.87856 31.7115 7.95893Z" fill="#4B4A54"/>
<path d="M14.4328 16.0094C12.453 17.2637 10.8193 18.9943 9.68097 21.0429C8.54259 23.0915 7.93583 25.3927 7.91632 27.7362C7.86909 27.7663 7.84324 27.7963 7.81963 27.7941C6.31715 27.7748 4.81462 27.8564 3.32716 27.7083C2.40452 27.5842 1.55864 27.1284 0.947565 26.4262C0.336486 25.7239 0.00201781 24.8232 0.00667771 23.8923C0.00667771 22.4673 -0.00834714 21.0401 0.00667771 19.615C0.0531517 18.2259 0.589493 16.8979 1.52085 15.866C2.4522 14.8342 3.71875 14.1651 5.09601 13.9769C7.15482 13.7266 9.2382 13.7583 11.2884 14.0714C12.535 14.3196 13.6509 15.0073 14.4328 16.0094Z" fill="#4B4A54"/>
<path d="M13.8764 5.95651C13.8778 6.73954 13.7244 7.51514 13.425 8.23867C13.1255 8.96221 12.686 9.61944 12.1317 10.1725C11.5773 10.7256 10.9191 11.1637 10.1949 11.4615C9.47061 11.7593 8.69453 11.911 7.91142 11.9079C6.33034 11.9011 4.8165 11.2676 3.70193 10.1463C2.58735 9.02496 1.96297 7.50742 1.96583 5.92648C1.97661 4.34557 2.61457 2.83357 3.73939 1.72253C4.86422 0.611497 6.38405 -0.00774596 7.96513 0.000821098C9.53825 0.00877183 11.044 0.640243 12.1521 1.75672C13.2602 2.8732 13.8804 4.38353 13.8764 5.95651Z" fill="#4B4A54"/>
<path d="M33.6856 5.97157C33.6781 4.40684 34.2882 2.90227 35.3832 1.78443C36.4782 0.666594 37.9698 0.0257031 39.5345 0.000857089C40.3216 -0.0124904 41.1036 0.130176 41.8353 0.420626C42.5669 0.711075 43.2336 1.14353 43.7972 1.69306C44.3608 2.2426 44.8101 2.89834 45.1188 3.62237C45.4275 4.3464 45.5898 5.12441 45.5962 5.91148C45.6031 7.48471 44.9886 8.99709 43.8866 10.1199C42.7845 11.2428 41.2838 11.8853 39.7106 11.9079C38.9237 11.919 38.1425 11.7737 37.4122 11.4804C36.682 11.1871 36.0174 10.7517 35.4568 10.1994C34.8963 9.64706 34.4511 8.98891 34.147 8.26314C33.843 7.53737 33.6861 6.75845 33.6856 5.97157Z" fill="#4B4A54"/>
</svg>
