<svg width="46" height="40" viewBox="0 0 46 40" fill="none" xmlns="http://www.w3.org/2000/svg">
<path d="M45.2752 8.76453C45.1327 9.01757 44.9399 9.23884 44.7085 9.41473C44.4771 9.59062 44.2119 9.71742 43.9296 9.78732C37.0879 12.0501 30.2507 14.3237 23.4177 16.6079C22.933 16.786 22.4015 16.7914 21.9134 16.623C14.9929 14.3087 8.06817 12.0073 1.13914 9.71871C0.650664 9.55849 0.242699 9.21679 0 8.76453V7.9712C0.126496 7.73441 0.299562 7.52554 0.508966 7.35716C0.71837 7.18878 0.959831 7.06434 1.21863 6.99131C8.07745 4.72421 14.9313 2.44353 21.7801 0.149265C22.3358 -0.0497549 22.9435 -0.0497549 23.4993 0.149265C30.2936 2.42066 37.0916 4.68132 43.8931 6.93128C44.1842 6.99904 44.4577 7.127 44.6962 7.30687C44.9346 7.48674 45.1326 7.71452 45.2773 7.97549L45.2752 8.76453Z" fill="#4B4A54"/>
<path d="M45.2747 38.4956C45.131 38.8256 44.883 39.0996 44.5688 39.2761C44.2545 39.4526 43.8911 39.5219 43.5338 39.4734C41.8273 39.4348 40.1167 39.4734 38.4103 39.4605C38.2147 39.4816 38.017 39.4591 37.8312 39.3948C37.6455 39.3304 37.4763 39.2258 37.3359 39.0884C37.1955 38.951 37.0873 38.7843 37.0193 38.6003C36.9512 38.4162 36.9248 38.2193 36.9421 38.0239C36.9421 35.7018 36.9163 33.3797 36.9421 31.0597C36.9206 30.2222 37.1615 29.3989 37.6311 28.7044C38.1007 28.0099 38.7758 27.4788 39.5623 27.1851C39.6289 27.1551 39.6912 27.1165 39.7771 27.0694V26.5526C39.7771 22.498 39.7771 18.4412 39.7771 14.3866C39.7649 14.3175 39.7668 14.2467 39.7829 14.1784C39.799 14.1101 39.829 14.0459 39.8708 13.9895C39.9126 13.9331 39.9656 13.8858 40.0264 13.8505C40.0871 13.8152 40.1544 13.7926 40.2242 13.784C40.9528 13.5696 41.6683 13.3145 42.4356 13.0593V27.0887C42.976 27.2745 43.4732 27.5677 43.8969 27.9506C44.3206 28.3336 44.662 28.7982 44.9006 29.3165C45.0575 29.6574 45.1543 30.0262 45.2789 30.3886L45.2747 38.4956Z" fill="#4B4A54"/>
<path d="M8.54982 14.9419C10.4712 15.5851 12.3516 16.1984 14.23 16.8245C16.5712 17.6036 18.911 18.3847 21.2493 19.1681C22.1912 19.4833 23.2124 19.4712 24.1465 19.1338C28.1999 17.7758 32.2561 16.4264 36.3152 15.0856C36.4506 15.0406 36.5904 15.0041 36.7709 14.9505V15.4287C36.7709 18.1625 36.7709 20.8984 36.7709 23.6322C36.7798 23.9174 36.7258 24.2011 36.6125 24.4631C36.4992 24.7251 36.3294 24.9589 36.1153 25.1482C33.0959 28.1099 29.164 29.9697 24.9545 30.4271C22.0502 30.8029 19.0982 30.5042 16.3286 29.5542C13.5591 28.6043 11.047 27.0289 8.98821 24.9509C8.71416 24.6684 8.55097 24.2971 8.5283 23.9046C8.49177 20.9799 8.50889 18.0531 8.50889 15.1284C8.5178 15.0653 8.53155 15.003 8.54982 14.9419Z" fill="#4B4A54"/>
</svg>
