<svg width="23" height="23" viewBox="0 0 23 23" fill="none" xmlns="http://www.w3.org/2000/svg">
<path d="M16.106 6.51449C15.4772 5.8829 14.7296 5.38192 13.9064 5.04039C13.0832 4.69886 12.2006 4.52352 11.3093 4.52447V11.3093L6.51449 16.106C7.14428 16.7358 7.89194 17.2353 8.7148 17.5762C9.53766 17.917 10.4196 18.0925 11.3102 18.0925C12.2009 18.0925 13.0828 17.917 13.9057 17.5762C14.7285 17.2353 15.4762 16.7358 16.106 16.106C16.7358 15.4762 17.2354 14.7285 17.5762 13.9057C17.917 13.0828 18.0925 12.2009 18.0925 11.3102C18.0925 10.4196 17.917 9.53765 17.5762 8.7148C17.2354 7.89194 16.7358 7.14427 16.106 6.51449ZM11.3093 0C9.07254 0 6.886 0.663278 5.0262 1.90596C3.16639 3.14864 1.71685 4.91491 0.860874 6.98142C0.00490033 9.04792 -0.219062 11.3218 0.21731 13.5156C0.653682 15.7094 1.73079 17.7245 3.31242 19.3062C4.89406 20.8878 6.90918 21.9649 9.10297 22.4013C11.2968 22.8377 13.5707 22.6137 15.6372 21.7577C17.7037 20.9018 19.47 19.4522 20.7126 17.5924C21.9553 15.7326 22.6186 13.5461 22.6186 11.3093C22.6176 8.31019 21.4258 5.43421 19.3051 3.31352C17.1844 1.19283 14.3084 0.000995224 11.3093 0ZM11.3093 20.3582C9.51996 20.3582 7.77081 19.8276 6.28302 18.8335C4.79524 17.8394 3.63566 16.4265 2.95091 14.7733C2.26616 13.1202 2.08699 11.3011 2.43608 9.54618C2.78516 7.79122 3.64681 6.17919 4.91206 4.91394C6.17732 3.64868 7.78935 2.78703 9.54431 2.43795C11.2993 2.08887 13.1183 2.26803 14.7715 2.95278C16.4246 3.63753 17.8376 4.79712 18.8317 6.2849C19.8258 7.77268 20.3564 9.52184 20.3564 11.3112C20.3566 12.4993 20.1228 13.6759 19.6682 14.7736C19.2136 15.8714 18.5472 16.8688 17.7071 17.709C16.8669 18.5491 15.8695 19.2155 14.7718 19.6701C13.674 20.1246 12.4975 20.3585 11.3093 20.3582Z" fill="#FF6600"/>
</svg>
