<svg width="62" height="62" viewBox="0 0 62 62" fill="none" xmlns="http://www.w3.org/2000/svg">
<rect x="0.649902" y="0.457031" width="60.7008" height="60.7008" rx="30.3504" fill="#FF6600"/>
<g clip-path="url(#clip0_497_5674)">
<path d="M31.5001 15.916C25.8563 15.916 21.2917 20.4806 21.2917 26.1243C21.2917 33.7806 31.5001 45.0827 31.5001 45.0827C31.5001 45.0827 41.7084 33.7806 41.7084 26.1243C41.7084 20.4806 37.1438 15.916 31.5001 15.916ZM31.5001 29.7702C29.4876 29.7702 27.8542 28.1368 27.8542 26.1243C27.8542 24.1118 29.4876 22.4785 31.5001 22.4785C33.5126 22.4785 35.1459 24.1118 35.1459 26.1243C35.1459 28.1368 33.5126 29.7702 31.5001 29.7702Z" fill="white"/>
</g>
<defs>
<clipPath id="clip0_497_5674">
<rect width="35" height="35" fill="white" transform="translate(14 13)"/>
</clipPath>
</defs>
</svg>
