<svg width="62" height="62" viewBox="0 0 62 62" fill="none" xmlns="http://www.w3.org/2000/svg">
<rect x="0.649414" y="0.457031" width="60.7008" height="60.7008" rx="30.3504" fill="#FF6600"/>
<g clip-path="url(#clip0_497_5680)">
<path d="M22.93 29.6346C25.09 33.9975 28.57 37.5587 32.815 39.7942L36.115 36.4025C36.52 35.9862 37.12 35.8475 37.645 36.0325C39.325 36.6029 41.14 36.9112 43 36.9112C43.825 36.9112 44.5 37.605 44.5 38.4529V43.8333C44.5 44.6812 43.825 45.375 43 45.375C28.915 45.375 17.5 33.6429 17.5 19.1667C17.5 18.3187 18.175 17.625 19 17.625H24.25C25.075 17.625 25.75 18.3187 25.75 19.1667C25.75 21.0937 26.05 22.9438 26.605 24.6704C26.77 25.21 26.65 25.8113 26.23 26.2429L22.93 29.6346Z" fill="white"/>
</g>
<defs>
<clipPath id="clip0_497_5680">
<rect width="36" height="37" fill="white" transform="translate(13 13)"/>
</clipPath>
</defs>
</svg>
