<svg width="34" height="34" viewBox="0 0 34 34" fill="none" xmlns="http://www.w3.org/2000/svg">
<circle cx="17.1508" cy="16.8491" r="16.8491" fill="white"/>
<g clip-path="url(#clip0_1224_5002)">
<path d="M15.83 17.7026C14.7252 17.4223 13.8145 17.6711 13.0952 18.5372C12.4216 19.3478 12.3362 20.5435 12.87 21.4795C13.4065 22.4203 14.4583 22.9178 15.5008 22.7225C16.5096 22.5334 17.3494 21.6488 17.4978 20.6086C17.5296 20.3838 17.5488 20.1543 17.5488 19.9275C17.5528 16.1225 17.5528 12.3182 17.5534 8.51317C17.5534 8.37818 17.5534 8.24319 17.5534 8.08765C18.4721 8.08765 19.3616 8.08765 20.269 8.08765C20.5558 10.7216 21.9706 12.1983 24.565 12.5018C24.565 13.407 24.565 14.345 24.565 15.3091C23.0091 15.2865 21.6209 14.7966 20.3214 13.8161C20.3214 14.0065 20.3214 14.1265 20.3214 14.2471C20.326 16.1554 20.3326 18.063 20.3353 19.9713C20.3392 22.7814 18.6489 24.9344 15.993 25.5058C13.1727 26.1122 10.2379 24.0189 9.80338 21.091C9.28675 17.6108 11.8533 14.6239 15.2445 14.7678C15.934 14.7973 15.8234 14.6856 15.8294 15.4112C15.8353 16.1643 15.83 16.9173 15.83 17.7026Z" fill="#4B4A54"/>
</g>
<defs>
<clipPath id="clip0_1224_5002">
<rect width="14.8272" height="17.523" fill="white" transform="translate(9.7373 8.08765)"/>
</clipPath>
</defs>
</svg>
