<svg width="35" height="34" viewBox="0 0 35 34" fill="none" xmlns="http://www.w3.org/2000/svg">
<circle cx="17.1752" cy="16.8491" r="16.8491" fill="white"/>
<path d="M17.177 25.6086C15.8545 25.6086 14.5319 25.612 13.2093 25.6079C10.5184 25.5997 8.42339 23.5086 8.41792 20.8188C8.41244 18.1735 8.41313 15.5282 8.41792 12.8835C8.42339 10.1917 10.517 8.09653 13.2073 8.09174C15.8524 8.08627 18.4975 8.08695 21.1419 8.09174C23.8329 8.09722 25.9279 10.191 25.9334 12.8808C25.9388 15.5261 25.9381 18.1714 25.9334 20.8161C25.9279 23.5072 23.8342 25.5997 21.1447 25.6079C19.8221 25.612 18.4996 25.6086 17.177 25.6086ZM17.162 12.0583C14.5367 12.0652 12.3822 14.2281 12.3849 16.8549C12.3876 19.4811 14.547 21.6392 17.1722 21.6406C19.8118 21.642 21.9773 19.4681 21.9664 16.8269C21.9554 14.2021 19.7886 12.0515 17.162 12.0583ZM23.4826 11.8038C23.4935 11.0176 22.8887 10.3785 22.1114 10.3546C21.3527 10.3313 20.6828 10.9745 20.6664 11.7409C20.65 12.5168 21.2678 13.16 22.0492 13.1785C22.8326 13.1976 23.4716 12.5852 23.4826 11.8038Z" fill="#4B4A54"/>
<path d="M17.1744 20.6121C15.1088 20.6114 13.4126 18.9144 13.4133 16.848C13.414 14.7816 15.1108 13.0867 17.1771 13.0867C19.2434 13.0874 20.9381 14.7836 20.9381 16.8507C20.9374 18.9172 19.2413 20.6127 17.1744 20.6121Z" fill="#4B4A54"/>
<path d="M22.4537 11.7799C22.4386 12.0194 22.3086 12.144 22.0815 12.1419C21.8386 12.1398 21.6634 11.9859 21.7141 11.7594C21.7469 11.6143 21.9364 11.4275 22.0794 11.4036C22.2977 11.3673 22.451 11.5357 22.4537 11.7799Z" fill="#FF6600"/>
</svg>
