<svg width="33" height="34" viewBox="0 0 33 34" fill="none" xmlns="http://www.w3.org/2000/svg">
<g clip-path="url(#clip0_1224_4987)">
<path d="M16.2757 0C7.34379 0 0.100586 7.545 0.100586 16.8491C0.100586 26.1531 7.34379 33.6981 16.2757 33.6981C25.2076 33.6981 32.4508 26.1531 32.4508 16.8491C32.4508 7.545 25.2076 0 16.2757 0ZM11.5754 25.471H7.63602V13.1255H11.5754V25.471ZM9.60583 11.4398H9.58016C8.25823 11.4398 7.40327 10.4918 7.40327 9.30714C7.40327 8.09571 8.28439 7.17401 9.63199 7.17401C10.9796 7.17401 11.8089 8.09571 11.8345 9.30714C11.8345 10.4918 10.9796 11.4398 9.60583 11.4398ZM25.7799 25.471H21.8411V18.8665C21.8411 17.2067 21.2707 16.0747 19.8453 16.0747C18.7571 16.0747 18.109 16.8383 17.8242 17.5754C17.72 17.8391 17.6946 18.2078 17.6946 18.5767V25.471H13.7555C13.7555 25.471 13.8071 14.2838 13.7555 13.1255H17.6946V14.8735C18.2181 14.0323 19.1548 12.8358 21.2448 12.8358C23.8365 12.8358 25.7799 14.6002 25.7799 18.3922V25.471Z" fill="white"/>
</g>
<defs>
<clipPath id="clip0_1224_4987">
<rect width="32.3502" height="33.6981" fill="white" transform="translate(0.100586)"/>
</clipPath>
</defs>
</svg>
