<svg width="18" height="25" viewBox="0 0 18 25" fill="none" xmlns="http://www.w3.org/2000/svg">
<path d="M8.67957 11.4787C8.56707 11.4675 8.43207 11.4675 8.30832 11.4787C7.01705 11.4349 5.79354 10.8901 4.8969 9.95991C4.00026 9.02967 3.5009 7.78697 3.50457 6.49496C3.50457 3.73871 5.73207 1.49996 8.49957 1.49996C9.15478 1.48814 9.80591 1.60549 10.4158 1.84531C11.0256 2.08513 11.5823 2.44272 12.054 2.89767C12.5256 3.35262 12.9031 3.89602 13.1647 4.49683C13.4264 5.09765 13.5671 5.74412 13.5789 6.39933C13.5908 7.05455 13.4734 7.70567 13.2336 8.31553C12.9938 8.9254 12.6362 9.48205 12.1812 9.95371C11.7263 10.4254 11.1829 10.8028 10.5821 11.0645C9.98125 11.3261 9.33478 11.4669 8.67957 11.4787ZM3.05457 15.63C0.33207 17.4525 0.33207 20.4225 3.05457 22.2337C6.14832 24.3037 11.2221 24.3037 14.3158 22.2337C17.0383 20.4112 17.0383 17.4412 14.3158 15.63C11.2333 13.5712 6.15957 13.5712 3.05457 15.63Z" stroke="white" stroke-width="1.5" stroke-linecap="round" stroke-linejoin="round"/>
</svg>
