<svg width="35" height="34" viewBox="0 0 35 34" fill="none" xmlns="http://www.w3.org/2000/svg">
<circle cx="17.3764" cy="16.8491" r="16.8491" fill="white"/>
<g clip-path="url(#clip0_1224_4989)">
<path d="M13.2339 21.4301C11.3307 21.2235 10.0601 20.3135 9.3459 18.5717C9.95759 18.5717 10.5116 18.5717 11.0665 18.5717C9.1001 17.8612 8.02562 16.5519 7.86789 14.5283C8.47799 14.6875 9.04085 14.835 9.60371 14.9818C7.82386 13.0281 7.41873 11.1209 8.51402 9.5461C10.7751 12.1009 13.6118 13.5398 17.0218 13.7588C17.0938 13.0428 17.0666 12.3486 17.2443 11.7072C18.041 8.83014 21.7648 7.79813 24.0403 9.80313C24.2588 9.99571 24.4494 10.0501 24.716 9.95611C25.4374 9.7014 26.162 9.45602 26.921 9.19433C26.6584 10.0392 26.0691 10.6643 25.3509 11.2009C25.3653 11.2382 25.3806 11.2754 25.395 11.3127C26.0819 11.1294 26.7681 10.947 27.4855 10.7552C27.0107 11.4525 26.4446 12.0551 25.7633 12.5482C25.5327 12.7143 25.4646 12.8898 25.4678 13.1632C25.5335 18.3908 21.9978 23.0926 16.9049 24.4687C13.6566 25.3469 10.5237 24.9975 7.56765 23.3776C7.46676 23.3225 7.37069 23.258 7.2666 23.1555C9.43957 23.258 11.4196 22.7603 13.2339 21.4301Z" fill="#4B4A54"/>
</g>
<defs>
<clipPath id="clip0_1224_4989">
<rect width="20.2189" height="16.1751" fill="white" transform="translate(7.2666 8.76147)"/>
</clipPath>
</defs>
</svg>
