<svg width="24" height="25" viewBox="0 0 24 25" fill="none" xmlns="http://www.w3.org/2000/svg">
<path d="M1.25 1.5H3.2075C4.4225 1.5 5.37875 2.54625 5.2775 3.75L4.34375 14.955C4.30729 15.3891 4.3614 15.826 4.50264 16.2381C4.64388 16.6502 4.86918 17.0285 5.16426 17.3489C5.45934 17.6694 5.81776 17.9251 6.21682 18.0998C6.61588 18.2744 7.04688 18.3643 7.4825 18.3637H19.4638C21.0838 18.3637 22.5013 17.0363 22.625 15.4275L23.2325 6.99C23.3675 5.1225 21.95 3.60375 20.0712 3.60375H5.5475M9.125 8.25H22.625M17.2812 24C17.6542 24 18.0119 23.8518 18.2756 23.5881C18.5393 23.3244 18.6875 22.9667 18.6875 22.5938C18.6875 22.2208 18.5393 21.8631 18.2756 21.5994C18.0119 21.3357 17.6542 21.1875 17.2812 21.1875C16.9083 21.1875 16.5506 21.3357 16.2869 21.5994C16.0232 21.8631 15.875 22.2208 15.875 22.5938C15.875 22.9667 16.0232 23.3244 16.2869 23.5881C16.5506 23.8518 16.9083 24 17.2812 24ZM8.28125 24C8.65421 24 9.0119 23.8518 9.27562 23.5881C9.53934 23.3244 9.6875 22.9667 9.6875 22.5938C9.6875 22.2208 9.53934 21.8631 9.27562 21.5994C9.0119 21.3357 8.65421 21.1875 8.28125 21.1875C7.90829 21.1875 7.5506 21.3357 7.28688 21.5994C7.02316 21.8631 6.875 22.2208 6.875 22.5938C6.875 22.9667 7.02316 23.3244 7.28688 23.5881C7.5506 23.8518 7.90829 24 8.28125 24Z" stroke="white" stroke-width="1.5" stroke-miterlimit="10" stroke-linecap="round" stroke-linejoin="round"/>
</svg>
