<svg width="25" height="22" viewBox="0 0 25 22" fill="none" xmlns="http://www.w3.org/2000/svg">
<path d="M5.15955 14.3926L5.15957 14.3926C7.02095 16.0888 8.92887 17.7228 10.8516 19.3696C11.5178 19.9401 12.1857 20.5122 12.8542 21.0889C13.3613 20.6637 13.8649 20.2451 14.3647 19.8298C15.7454 18.6824 17.097 17.5591 18.4133 16.3855C19.8196 15.1309 21.1889 13.8311 22.4285 12.4253C23.8942 10.7625 24.647 8.81214 24.2901 6.5181L5.15955 14.3926ZM5.15955 14.3926C4.16848 13.4896 3.27262 12.4054 2.51978 11.2577L5.15955 14.3926ZM2.46244 3.85548L2.46238 3.85556C1.03272 6.0157 0.983677 8.9143 2.5197 11.2576L2.46244 3.85548ZM2.46244 3.85548C4.47755 0.809446 9.09407 0.129005 11.735 3.65355L11.7352 3.65378M2.46244 3.85548L11.7352 3.65378M11.7352 3.65378C11.9101 3.88697 12.0676 4.12351 12.216 4.34657C12.2788 4.44087 12.3399 4.53276 12.4001 4.62096L12.7565 5.14315M11.7352 3.65378L12.7565 5.14315M12.7565 5.14315L13.1825 4.67607M12.7565 5.14315L13.1825 4.67607M13.1825 4.67607C13.4032 4.4342 13.6239 4.17429 13.8373 3.92315C13.9598 3.77892 14.0798 3.63757 14.196 3.5042C14.5259 3.12543 14.8503 2.77934 15.203 2.48738C16.9253 1.06365 18.8497 0.910638 20.8581 1.79243L20.8582 1.79246M13.1825 4.67607L20.8582 1.79246M20.8582 1.79246C22.8129 2.65027 23.9378 4.25867 24.29 6.51798L20.8582 1.79246Z" stroke="#DADDE2"/>
</svg>
