<svg width="18" height="21" viewBox="0 0 18 21" fill="none" xmlns="http://www.w3.org/2000/svg">
<path d="M1.21875 6.17578C6.29697 6.17578 11.3422 6.17578 16.4197 6.17578C16.3616 6.95147 16.3074 7.70831 16.2469 8.46432C16.1009 10.3011 15.9549 12.137 15.8049 13.9729C15.6549 15.808 15.5277 17.6463 15.3338 19.4765C15.238 20.3752 14.5079 20.9902 13.6458 20.9926C10.4275 21.0025 7.20851 21.0033 3.99026 20.9918C3.01042 20.9885 2.31636 20.2169 2.23 19.1141C1.97326 15.849 1.71103 12.5847 1.45429 9.32037C1.37342 8.2872 1.29962 7.2524 1.21875 6.17578ZM8.22996 12.9192C8.22996 14.4755 8.22918 16.0326 8.22996 17.5889C8.23075 18.2408 8.43017 18.5499 8.83608 18.5368C9.22943 18.5237 9.40844 18.2334 9.40844 17.5939C9.40923 14.5083 9.40923 11.4219 9.40844 8.3364C9.40844 8.20029 9.40923 8.06253 9.39039 7.92806C9.34014 7.58121 9.13286 7.38688 8.80311 7.39426C8.49298 7.40164 8.2967 7.59351 8.25038 7.92232C8.23153 8.05679 8.23153 8.19455 8.23153 8.33066C8.22918 9.86073 8.22996 11.39 8.22996 12.9192ZM6.46342 17.7103C6.43751 17.3872 6.40846 17.1019 6.39197 16.8165C6.25143 14.3804 6.11482 11.9434 5.97271 9.50732C5.94131 8.96368 5.90755 8.4184 5.84395 7.87804C5.80548 7.54759 5.57387 7.37704 5.26296 7.39426C4.93399 7.4123 4.74084 7.61729 4.71179 7.96824C4.70473 8.04941 4.71258 8.13141 4.71729 8.21341C4.83192 10.2551 4.94419 12.2969 5.06275 14.3386C5.13184 15.5226 5.20878 16.7058 5.28415 17.8899C5.31006 18.29 5.56366 18.554 5.8997 18.5376C6.22082 18.5221 6.44929 18.2539 6.46264 17.8776C6.46578 17.8087 6.46342 17.7406 6.46342 17.7103ZM12.9133 8.56517C12.9093 8.56517 12.9054 8.56435 12.9015 8.56435C12.9109 8.40036 12.9274 8.23719 12.9282 8.07319C12.9305 7.67633 12.7225 7.41312 12.3959 7.38852C12.0952 7.36638 11.8376 7.58777 11.7772 7.94446C11.7434 8.14535 11.7371 8.35116 11.7254 8.55533C11.6571 9.70001 11.5903 10.8447 11.5228 11.9894C11.4074 13.9245 11.2873 15.8588 11.1789 17.7948C11.1546 18.2326 11.3909 18.5204 11.7395 18.536C12.0881 18.5508 12.3299 18.2785 12.3543 17.844C12.3872 17.2577 12.4194 16.6714 12.4555 16.0859C12.6078 13.5793 12.761 11.0726 12.9133 8.56517Z" fill="white"/>
<path d="M12.9663 2.46749C13.1759 2.46749 13.3691 2.46749 13.5614 2.46749C14.5028 2.46749 15.4442 2.46421 16.3855 2.46913C17.1228 2.47323 17.6331 2.9726 17.6394 3.68433C17.6457 4.41328 17.1306 4.91756 16.3698 4.92576C16.3565 4.92576 16.3439 4.92576 16.3306 4.92576C11.323 4.92576 6.31624 4.92658 1.30868 4.92494C0.624828 4.92494 0.134122 4.55678 0.0257739 3.96968C-0.123401 3.16775 0.390074 2.48225 1.1752 2.47159C2.19509 2.45765 3.21497 2.46749 4.23486 2.46749C4.37539 2.46749 4.51593 2.46749 4.67374 2.46749C4.69259 2.17395 4.70279 1.91647 4.72713 1.66146C4.8135 0.745558 5.50755 0.028084 6.38768 0.0166044C8.00819 -0.0055348 9.63027 -0.0055348 11.2508 0.0166044C12.1309 0.0289039 12.825 0.745558 12.9129 1.66064C12.9372 1.91647 12.9474 2.17395 12.9663 2.46749ZM5.88206 2.43552C7.86451 2.43552 9.80379 2.43552 11.7572 2.43552C11.7572 2.21412 11.7721 2.02225 11.754 1.83366C11.7179 1.44991 11.5036 1.23836 11.1338 1.23754C9.59023 1.23262 8.04745 1.23262 6.50388 1.23754C6.13409 1.23836 5.92053 1.45155 5.8852 1.8353C5.86793 2.02389 5.88206 2.21494 5.88206 2.43552Z" fill="white"/>
</svg>
