<svg width="19" height="22" viewBox="0 0 19 22" fill="none" xmlns="http://www.w3.org/2000/svg">
<g clip-path="url(#clip0_1_350)">
<path d="M9.45095 22.0002C6.59271 22.0002 3.73447 22.0002 0.877072 22.0002C0.172022 22.0002 -0.0274883 21.7879 0.00294554 21.0746C0.172868 17.0118 2.90515 13.7338 6.85563 13.0367C8.11694 12.8141 9.43574 12.9233 10.7283 12.8958C11.796 12.8734 12.8232 13.0917 13.8123 13.4931C16.8717 14.7325 18.9759 17.8661 18.9996 21.2129C19.0038 21.7742 18.7764 22.0002 18.1939 22.0002C15.2799 22.0011 12.3658 22.0002 9.45095 22.0002Z" fill="#B3B3B3"/>
<path d="M15.1995 5.81441C15.1851 9.04947 12.6227 11.6141 9.42042 11.6004C6.33477 11.5866 3.7834 8.94892 3.79693 5.78605C3.81045 2.55098 6.37281 -0.0136966 9.57513 5.50427e-05C12.6625 0.0138067 15.2138 2.65068 15.1995 5.81441Z" fill="#B3B3B3"/>
</g>
<defs>
<clipPath id="clip0_1_350">
<rect width="19" height="22" fill="white"/>
</clipPath>
</defs>
</svg>
