<svg width="30" height="33" viewBox="0 0 30 33" fill="none" xmlns="http://www.w3.org/2000/svg">
<g clip-path="url(#clip0_1_460)">
<path d="M14.9026 11.0532C16.6355 12.5651 18.3196 14.0824 20.0579 15.5333C20.621 16.0041 20.8051 16.4914 20.7997 17.2168C20.7672 22.2009 20.7835 27.185 20.7835 32.169C20.7835 32.4238 20.7835 32.6785 20.7835 32.9775C19.9116 32.9775 19.0777 32.9775 18.1571 32.9775C18.1571 32.7671 18.1571 32.5401 18.1571 32.3185C18.1571 30.4689 18.1571 28.6248 18.1571 26.7752C18.1571 26.0386 18.0217 25.8891 17.3178 25.8836C15.7203 25.8725 14.1228 25.8891 12.5308 25.878C11.9514 25.8725 11.6968 26.1162 11.7077 26.7309C11.7293 28.5805 11.7131 30.4246 11.7131 32.2742C11.7131 32.5068 11.7131 32.7339 11.7131 32.9997C10.7925 32.9997 9.94233 32.9997 9.00009 32.9997C9.00009 32.7671 9.00009 32.5345 9.00009 32.3075C9.00009 27.1517 9.0055 21.996 8.98926 16.8403C8.98926 16.3917 9.11381 16.0871 9.44955 15.7992C11.269 14.2264 13.0669 12.6481 14.9026 11.0532ZM14.9026 22.3227C15.7203 22.3227 16.538 22.3172 17.3557 22.3227C17.7727 22.3283 18.1409 22.2452 18.1571 21.7357C18.1788 21.1875 17.7835 21.0656 17.3503 21.0656C15.7149 21.0601 14.0795 21.0601 12.4441 21.0656C12.0272 21.0656 11.6589 21.2152 11.6643 21.7025C11.6698 22.1787 12.0055 22.3338 12.4441 22.3283C13.2618 22.3117 14.0795 22.3227 14.9026 22.3227Z" fill="#B3B3B3"/>
<path d="M29.9457 32.9889C27.2977 32.9889 24.6768 32.9889 22.0342 32.9889C22.0342 28.6029 22.0342 24.2502 22.0342 19.831C22.971 19.831 23.8753 19.831 24.7743 19.831C26.1605 19.831 27.5468 19.8254 28.9385 19.8365C29.6587 19.842 30.0053 20.1743 30.0053 20.8887C30.0107 24.8649 30.0053 28.841 29.9999 32.8172C29.9945 32.856 29.9728 32.8947 29.9457 32.9889ZM28.2183 28.8632C28.2237 28.8632 28.2291 28.8632 28.2345 28.8632C28.2345 28.6694 28.3049 28.4368 28.2183 28.2928C28.0667 28.0325 27.8555 27.6947 27.6118 27.6338C27.2219 27.5341 27.0161 27.8775 26.9945 28.2651C26.9728 28.6915 26.9187 29.1401 27.0161 29.5443C27.0757 29.788 27.3735 30.0926 27.6064 30.1369C27.7743 30.1701 28.0829 29.8545 28.1966 29.6274C28.2995 29.4225 28.2183 29.1235 28.2183 28.8632ZM26.9836 23.5746C26.9891 23.5746 26.9891 23.5746 26.9836 23.5746C26.9836 23.7905 26.9728 24.0065 26.9891 24.2169C27.0161 24.5991 27.1732 24.887 27.5956 24.8926C28.0179 24.9036 28.1966 24.6212 28.2291 24.2391C28.2562 23.857 28.2454 23.4638 28.2345 23.0817C28.2291 22.6663 28.0504 22.3341 27.6226 22.3341C27.1569 22.3285 26.9836 22.6774 26.9891 23.1205C26.9836 23.2755 26.9836 23.425 26.9836 23.5746ZM23.9403 28.8521C23.9457 28.8521 23.9457 28.8521 23.9403 28.8521C23.9457 29.1069 23.8699 29.4004 23.9674 29.6108C24.0703 29.8379 24.3356 30.1369 24.5306 30.1369C24.7255 30.1369 25.0504 29.8323 25.0883 29.6219C25.175 29.1456 25.175 28.6306 25.0883 28.1544C25.0504 27.9439 24.693 27.6116 24.5414 27.6393C24.314 27.6836 24.0919 27.9771 23.9566 28.2153C23.8699 28.3869 23.9403 28.6417 23.9403 28.8521ZM23.9457 23.6465C23.9511 23.8847 23.8753 24.156 23.9674 24.3443C24.0811 24.5714 24.3356 24.8649 24.5306 24.8649C24.7255 24.8649 25.0558 24.5658 25.0937 24.3554C25.1804 23.8791 25.1804 23.3641 25.0937 22.8879C25.0558 22.6719 24.6984 22.3285 24.5468 22.3618C24.314 22.4116 24.0865 22.6996 23.962 22.9488C23.8699 23.1371 23.9457 23.414 23.9457 23.6465Z" fill="#B3B3B3"/>
<path d="M7.7491 32.9997C5.16065 32.9997 2.62635 32.9997 0.0270758 32.9997C0.0216606 32.7838 0 32.5789 0 32.3684C0 28.6304 0 24.8979 0 21.1598C0 20.1076 0.270758 19.8252 1.29964 19.8252C3.25451 19.8197 5.20397 19.8252 7.15884 19.8252C7.34296 19.8252 7.52707 19.8418 7.75451 19.8584C7.7491 24.2389 7.7491 28.5861 7.7491 32.9997ZM2.90253 28.874C2.90794 28.874 2.90794 28.874 2.91336 28.874C2.91336 28.6581 2.98375 28.4089 2.89711 28.2427C2.77256 27.9991 2.52888 27.8163 2.33935 27.6059C2.13357 27.8052 1.79783 27.9769 1.75451 28.204C1.66787 28.6802 1.68412 29.1897 1.76534 29.6715C1.79783 29.8709 2.12816 30.1699 2.29603 30.1478C2.51263 30.1201 2.77256 29.8653 2.88087 29.6383C2.97834 29.4278 2.90253 29.1343 2.90253 28.874ZM6.05415 28.935C6.05415 28.6802 6.12996 28.3867 6.03791 28.1707C5.93502 27.9437 5.6805 27.6446 5.48556 27.6391C5.29061 27.6336 4.94946 27.9326 4.91697 28.1375C4.83574 28.6359 4.84115 29.1676 4.92238 29.666C4.95487 29.8598 5.29061 30.1588 5.45307 30.1367C5.66967 30.109 5.91877 29.8487 6.03249 29.6217C6.12996 29.4444 6.05415 29.1676 6.05415 28.935ZM2.89711 23.6297C2.90253 23.6297 2.90253 23.6297 2.89711 23.6297C2.89711 23.375 2.97834 23.0759 2.88087 22.871C2.77256 22.644 2.51263 22.3892 2.29603 22.3615C2.13357 22.3394 1.79783 22.644 1.77076 22.8378C1.70036 23.3584 1.70036 23.9121 1.77617 24.4327C1.80325 24.6154 2.1444 24.8702 2.33935 24.8647C2.52888 24.8591 2.78881 24.5988 2.88087 24.3884C2.97292 24.178 2.89711 23.89 2.89711 23.6297ZM6.05957 23.6463C6.06498 23.4082 6.13538 23.1368 6.04332 22.9486C5.91877 22.7049 5.68592 22.4169 5.45848 22.3671C5.31227 22.3339 4.95487 22.6772 4.91697 22.8932C4.83032 23.3694 4.83032 23.8845 4.91697 24.3607C4.95487 24.5711 5.2852 24.8702 5.48014 24.8647C5.67509 24.8647 5.9296 24.5711 6.04332 24.3441C6.12996 24.1558 6.05957 23.8789 6.05957 23.6463Z" fill="#B3B3B3"/>
<path d="M14.93 7.06592C17.8812 9.64655 20.7783 12.1884 23.7242 14.7635C23.3505 15.201 22.9986 15.6163 22.5978 16.0871C21.791 15.3893 21.0112 14.7192 20.2368 14.0381C18.6881 12.6868 17.1448 11.3301 15.6014 9.97328C15.0383 9.47488 14.8379 9.48042 14.2531 9.99544C11.9408 12.0112 9.62311 14.027 7.25668 16.0926C6.88845 15.6606 6.53646 15.2453 6.13574 14.7801C9.06534 12.205 11.9787 9.65209 14.93 7.06592Z" fill="#B3B3B3"/>
<path d="M15.6337 4.54649C15.6337 5.11689 15.6337 5.62083 15.6337 6.16354C15.2005 6.16354 14.8323 6.16354 14.3774 6.16354C14.3774 5.91987 14.3774 5.67067 14.3774 5.42147C14.3774 3.92071 14.372 2.41996 14.3774 0.913664C14.3828 0.238047 14.594 0.00545746 15.2276 0.00545746C16.6951 -8.0383e-05 18.168 -0.0111561 19.6355 0.0165331C19.89 0.022071 20.2637 0.166055 20.3557 0.359879C20.4532 0.559242 20.3341 0.930277 20.2041 1.1684C19.9875 1.55605 19.6897 1.89386 19.4081 2.27597C19.6789 2.64147 19.9821 2.97928 20.1987 3.36693C20.3287 3.60505 20.4586 3.97055 20.3612 4.17545C20.2745 4.36928 19.9009 4.5188 19.6464 4.52987C18.5579 4.56864 17.464 4.54649 16.3756 4.54649C16.1482 4.54649 15.9261 4.54649 15.6337 4.54649Z" fill="#B3B3B3"/>
<path d="M12.9805 27.1406C14.2855 27.1406 15.5418 27.1406 16.8523 27.1406C16.8523 29.0844 16.8523 31.0171 16.8523 32.9886C15.5743 32.9886 14.3018 32.9886 12.9805 32.9886C12.9805 31.0503 12.9805 29.1287 12.9805 27.1406Z" fill="#B3B3B3"/>
</g>
<defs>
<clipPath id="clip0_1_460">
<rect width="30" height="33" fill="white"/>
</clipPath>
</defs>
</svg>
