<svg width="22" height="16" viewBox="0 0 22 16" fill="none" xmlns="http://www.w3.org/2000/svg">
<g clip-path="url(#clip0_1_366)">
<path d="M1.0752 0.148973C1.42662 0.0903263 1.70158 0.00502144 1.97654 0.00502144C7.98951 -0.0029759 14.0025 -0.0029759 20.0154 0.00502144C20.2921 0.00502144 20.5696 0.0885492 20.9254 0.146308C20.7595 0.327581 20.6659 0.435989 20.5662 0.538177C17.906 3.27415 15.2467 6.01013 12.5856 8.74433C11.5158 9.84352 10.4839 9.8453 9.41756 8.74877C6.7565 6.01457 4.09629 3.2786 1.43608 0.54262C1.3364 0.440432 1.24189 0.331135 1.0752 0.148973Z" fill="#B3B3B3"/>
<path d="M1.20898 15.8753C3.40864 13.5445 5.57565 11.2475 7.76929 8.92295C8.6818 9.95283 9.57971 10.9098 11.0267 10.8974C12.4487 10.8858 13.3346 9.93683 14.2334 8.91406C16.4373 11.2466 18.606 13.5427 20.7997 15.8655C20.5763 15.9046 20.3056 15.9926 20.0349 15.9935C14.0091 16.0015 7.98238 16.0015 1.95652 15.9935C1.69274 15.9935 1.42895 15.9126 1.20898 15.8753Z" fill="#B3B3B3"/>
<path d="M0.142087 14.8545C0.0896733 14.5266 0.00632698 14.2441 0.00546774 13.9624C-0.00312466 9.98059 -0.00312466 5.99881 0.00546774 2.01791C0.00632698 1.74511 0.0853771 1.4732 0.134354 1.16309C2.35721 3.49831 4.52937 5.7811 6.65599 8.01502C4.56804 10.2081 2.38556 12.4998 0.142087 14.8545Z" fill="#B3B3B3"/>
<path d="M21.8551 14.8989C19.5953 12.5272 17.4275 10.2515 15.3086 8.02827C17.4335 5.79702 19.6151 3.50534 21.8551 1.15234C21.9067 1.47224 21.9918 1.75303 21.9926 2.03383C22.0012 6.01472 22.0012 9.99651 21.9926 13.9774C21.9926 14.2502 21.9144 14.5221 21.8551 14.8989Z" fill="#B3B3B3"/>
</g>
<defs>
<clipPath id="clip0_1_366">
<rect width="22" height="16" fill="white"/>
</clipPath>
</defs>
</svg>
