<svg width="20" height="20" viewBox="0 0 20 20" fill="none" xmlns="http://www.w3.org/2000/svg">
<g clip-path="url(#clip0_1_337)">
<path d="M3.42549 0.00251356C4.02452 0.00251356 4.62278 -0.00295263 5.22181 0.00407533C6.17073 0.0150077 6.8463 0.672512 6.87207 1.61426C6.90331 2.77621 7.05717 3.91787 7.40784 5.02985C7.61871 5.6975 7.51015 6.28941 7.04311 6.84462C6.51671 7.47089 6.04108 8.14167 5.56311 8.8062C5.49438 8.90225 5.47641 9.1045 5.5303 9.20836C6.73149 11.5151 8.49657 13.2658 10.7974 14.4723C10.8989 14.5254 11.1028 14.502 11.1988 14.4317C11.8932 13.9272 12.5781 13.4095 13.2529 12.8785C13.7184 12.5123 14.2299 12.3983 14.7891 12.5623C15.9802 12.9113 17.1884 13.119 18.4333 13.1378C19.3073 13.151 19.9805 13.8484 19.9906 14.7206C20.0047 15.931 20.0008 17.1421 19.993 18.3533C19.9859 19.3286 19.2908 20.0103 18.3005 20.001C14.5462 19.9666 11.0965 18.9163 8.01078 16.7775C4.26742 14.1826 1.78772 10.6717 0.601375 6.26364C0.197595 4.76278 0.00156268 3.23147 6.67218e-07 1.67751C-0.000780339 0.694377 0.684162 0.0126651 1.66823 0.00329444C2.25398 -0.00217174 2.83974 0.00251356 3.42549 0.00251356Z" fill="#B3B3B3"/>
</g>
<defs>
<clipPath id="clip0_1_337">
<rect width="20" height="20" fill="white"/>
</clipPath>
</defs>
</svg>
