<svg width="20" height="20" viewBox="0 0 20 20" fill="none" xmlns="http://www.w3.org/2000/svg">
<path d="M0 15.2725V19.2905H4.018L15.87 7.43954L11.851 3.42054L0 15.2725ZM18.977 4.33154C19.0764 4.23242 19.1552 4.11467 19.209 3.98502C19.2628 3.85538 19.2905 3.7164 19.2905 3.57604C19.2905 3.43567 19.2628 3.29669 19.209 3.16705C19.1552 3.03741 19.0764 2.91965 18.977 2.82054L16.47 0.313535C16.3709 0.21415 16.2531 0.135298 16.1235 0.0814958C15.9938 0.0276938 15.8549 0 15.7145 0C15.5741 0 15.4352 0.0276938 15.3055 0.0814958C15.1759 0.135298 15.0581 0.21415 14.959 0.313535L13 2.27454L17.018 6.29253L18.979 4.33154H18.977Z" fill="white"/>
</svg>
