<svg width="29" height="29" viewBox="0 0 29 29" fill="none" xmlns="http://www.w3.org/2000/svg">
<path d="M13.6355 28.5842C10.2348 28.3555 7.02961 26.9121 4.60449 24.5172C4.93849 24.1312 5.25848 23.7872 5.55048 23.4172C7.2966 21.2645 8.35977 18.6392 8.60352 15.8782C8.62652 15.6272 8.6035 15.3662 8.9975 15.3702C10.5275 15.3842 12.0585 15.3762 13.6355 15.3762V28.5842Z" fill="white"/>
<path d="M24.4092 24.5074C21.9815 26.9079 18.7716 28.3553 15.3652 28.5854V15.3794H15.9542C17.2672 15.3794 18.5812 15.3854 19.8942 15.3794C20.1892 15.3794 20.3662 15.4224 20.3942 15.7794C20.6638 19.0706 22.0855 22.1612 24.4092 24.5074Z" fill="white"/>
<path d="M13.6378 13.7373C12.0518 13.7373 10.5197 13.7303 8.98773 13.7423C8.58773 13.7423 8.62576 13.4693 8.60376 13.2243C8.39575 10.831 7.55463 8.5362 6.16675 6.57534C5.70775 5.92134 5.17477 5.31934 4.63477 4.64134C7.0433 2.2336 10.238 0.773248 13.6348 0.527344L13.6378 13.7373Z" fill="white"/>
<path d="M15.3525 13.7371V0.537109C18.7683 0.776325 21.9818 2.24453 24.3986 4.67011C24.1096 4.99711 23.8376 5.28911 23.5836 5.59511C21.7596 7.75907 20.6473 10.4329 20.3986 13.2521C20.3776 13.4761 20.4235 13.7461 20.0485 13.7441C18.5005 13.7321 16.9525 13.7371 15.3525 13.7371Z" fill="white"/>
<path d="M0.480469 15.4062H6.99347C6.80202 18.3536 5.56484 21.1359 3.50452 23.2523C1.72682 21.0026 0.672452 18.2671 0.480469 15.4062Z" fill="white"/>
<path d="M22.0645 15.4111H28.5115C28.3371 18.244 27.3062 20.9571 25.5555 23.1911C23.8235 21.9861 21.9395 17.7931 22.0645 15.4111Z" fill="white"/>
<path d="M3.50012 5.91846C5.55429 8.01021 6.79527 10.7659 7.00012 13.6905H0.494141C0.678748 10.8536 1.72777 8.14126 3.50012 5.91846Z" fill="white"/>
<path d="M28.5188 13.7044H22.0088C22.205 10.7758 23.4443 8.01458 25.5018 5.92139C27.2786 8.14678 28.3315 10.8628 28.5188 13.7044Z" fill="white"/>
</svg>
