<svg width="29" height="29" viewBox="0 0 29 29" fill="none" xmlns="http://www.w3.org/2000/svg">
<path d="M14.3085 0.136745C17.1269 0.143697 19.8799 0.986589 22.219 2.55875C24.5582 4.1309 26.3783 6.36165 27.4491 8.96867C28.52 11.5757 28.7933 14.4418 28.2346 17.2042C27.676 19.9667 26.3104 22.5013 24.3107 24.4874C22.3109 26.4734 19.7669 27.8215 17.0006 28.3612C14.2344 28.9008 11.3702 28.6077 8.77065 27.5189C6.17106 26.4301 3.953 24.5946 2.39699 22.2447C0.84098 19.8948 0.0169792 17.1361 0.0294361 14.3177C0.0482218 10.5455 1.56185 6.93459 4.23842 4.27639C6.91499 1.61819 10.5362 0.129551 14.3085 0.136745ZM17.4085 21.3367C16.9025 21.4237 16.3921 21.4815 15.8795 21.5097C15.1045 21.5097 14.7795 21.1767 14.8455 20.4017C14.9237 19.7417 15.0487 19.0881 15.2195 18.4457C15.5515 17.0257 15.9995 15.6257 16.2195 14.1907C16.2803 13.8736 16.2705 13.5469 16.1908 13.234C16.1112 12.921 15.9636 12.6295 15.7586 12.38C15.5535 12.1305 15.2961 11.9292 15.0045 11.7904C14.713 11.6515 14.3944 11.5786 14.0714 11.5767C12.942 11.5339 11.8175 11.7451 10.7805 12.1947C10.1475 12.3947 10.0664 12.8217 10.0654 13.3597C10.3949 13.2695 10.7286 13.1957 11.0654 13.1387C12.3064 12.9917 12.7605 13.4677 12.5355 14.7037C12.4195 15.3387 12.2355 15.9607 12.0825 16.5897C11.7735 17.8827 11.3695 19.1617 11.1825 20.4717C11.1273 20.7711 11.1358 21.0788 11.2073 21.3747C11.2788 21.6706 11.4118 21.9482 11.5976 22.1893C11.7833 22.4305 12.0178 22.6299 12.2857 22.7745C12.5535 22.9191 12.8489 23.0057 13.1525 23.0287C14.3341 23.166 15.5307 22.9721 16.6085 22.4687C16.8548 22.4045 17.0704 22.2553 17.2172 22.0473C17.364 21.8394 17.4325 21.5863 17.4105 21.3327L17.4085 21.3367ZM15.5515 9.69374C15.9503 9.66604 16.3322 9.5219 16.6498 9.27917C16.9674 9.03645 17.2069 8.70583 17.3384 8.32832C17.4699 7.9508 17.4877 7.543 17.3895 7.15546C17.2914 6.76793 17.0817 6.41772 16.7864 6.14826C16.4911 5.8788 16.1232 5.70194 15.7283 5.63962C15.3334 5.5773 14.929 5.63225 14.5651 5.79766C14.2011 5.96307 13.8938 6.23167 13.681 6.57014C13.4683 6.90862 13.3596 7.30208 13.3684 7.70174C13.4054 8.25096 13.6535 8.7646 14.0606 9.13514C14.4676 9.50568 15.0022 9.70441 15.5525 9.68974L15.5515 9.69374Z" fill="white"/>
</svg>
