<svg width="30" height="20" viewBox="0 0 30 20" fill="none" xmlns="http://www.w3.org/2000/svg">
<path d="M0.769531 13.9507C0.820212 10.5647 1.74656 7.24952 3.4585 4.32773C3.90751 3.42849 4.57132 2.65382 5.39111 2.07229C6.21091 1.49076 7.16147 1.12031 8.15857 0.993727C9.75503 0.89217 11.3395 1.32876 12.6586 2.23373C13.4186 2.75095 14.3171 3.0268 15.2365 3.02519C16.1558 3.02359 17.0533 2.7446 17.8115 2.22473C18.9226 1.48967 20.2062 1.0571 21.5355 0.969725C22.5316 0.928111 23.5207 1.15318 24.4008 1.62168C25.2808 2.09017 26.0199 2.78512 26.5415 3.63473C28.1942 6.04864 29.1986 8.84683 29.4585 11.7607C29.6754 13.6746 29.6006 15.6103 29.2366 17.5017C29.2028 18.0856 28.9759 18.6416 28.5916 19.0824C28.2072 19.5232 27.6873 19.8237 27.1135 19.9367C26.7707 19.9983 26.4181 19.9781 26.0845 19.8779C25.7509 19.7776 25.4456 19.6001 25.1935 19.3597C23.9745 18.2597 22.7496 17.1597 21.6436 15.9597C21.3411 15.586 20.9553 15.2883 20.5172 15.0901C20.0791 14.892 19.6009 14.7991 19.1205 14.8187C16.3955 14.8707 13.6685 14.8447 10.9425 14.8307C10.5891 14.8288 10.2394 14.9039 9.91785 15.0507C9.59631 15.1975 9.31068 15.4124 9.08057 15.6807C7.94457 16.8627 6.79746 18.0427 5.56946 19.1257C5.0622 19.5584 4.44326 19.8391 3.78357 19.9357C3.20432 19.9933 2.62559 19.8204 2.17285 19.4545C1.72012 19.0886 1.42974 18.5592 1.3645 17.9807C1.0745 16.6507 0.960531 15.2937 0.769531 13.9507ZM9.82947 9.38473H11.0706C11.8706 9.38473 12.2186 8.96073 12.0706 8.15973C11.9836 7.68473 11.8055 7.32073 11.1945 7.39773C10.7567 7.42752 10.3177 7.43086 9.87952 7.40772C9.87952 6.97472 9.87952 6.62373 9.87952 6.27273C9.87952 5.37273 9.74052 5.22973 8.83252 5.23073C8.68452 5.23073 8.53753 5.27272 8.38953 5.28272C8.01853 5.30872 7.87951 5.49573 7.90051 5.87073C7.92851 6.36573 7.90747 6.86272 7.90747 7.40772C7.43297 7.42991 6.95766 7.42657 6.48352 7.39773C5.93152 7.33473 5.73454 7.61073 5.70654 8.08573C5.69017 8.34583 5.70119 8.60694 5.7395 8.86473C5.73963 8.94425 5.75733 9.02277 5.79138 9.09463C5.82543 9.1665 5.87494 9.22994 5.9364 9.28041C5.99786 9.33088 6.06973 9.36712 6.14685 9.38654C6.22397 9.40596 6.30454 9.40807 6.38257 9.39272C6.85457 9.35773 7.33152 9.38473 7.83252 9.38473C7.85309 9.84658 7.85006 10.3092 7.82349 10.7707C7.76249 11.3267 8.07756 11.5137 8.52356 11.5647C8.78272 11.5818 9.04294 11.5643 9.29749 11.5127C9.38177 11.5113 9.46465 11.4909 9.54004 11.4532C9.61543 11.4155 9.68145 11.3613 9.73315 11.2948C9.78486 11.2282 9.82098 11.1509 9.83887 11.0685C9.85675 10.9861 9.85599 10.9008 9.83655 10.8187C9.79955 10.3747 9.82947 9.92673 9.82947 9.38473ZM19.2565 9.99473C19.2565 10.1993 19.2969 10.4019 19.3752 10.5909C19.4536 10.7799 19.5685 10.9515 19.7133 11.096C19.8581 11.2406 20.03 11.3551 20.2191 11.4331C20.4082 11.5112 20.611 11.5511 20.8156 11.5507C21.2196 11.5419 21.6048 11.3778 21.8911 11.0926C22.1775 10.8073 22.3431 10.4228 22.3535 10.0187C22.3564 9.81399 22.3188 9.61071 22.2428 9.42058C22.1668 9.23046 22.0539 9.05725 21.9106 8.91094C21.7674 8.76464 21.5967 8.64812 21.4082 8.5681C21.2197 8.48809 21.0172 8.44616 20.8125 8.44473C20.6079 8.44151 20.4048 8.47932 20.2151 8.55595C20.0254 8.63258 19.8528 8.74646 19.7079 8.89086C19.5629 9.03527 19.4485 9.20727 19.3711 9.39669C19.2937 9.58612 19.2551 9.78913 19.2576 9.99373L19.2565 9.99473ZM19.2565 5.66573C19.2477 5.87129 19.2807 6.07649 19.3531 6.26905C19.4256 6.4616 19.5362 6.63753 19.6783 6.78629C19.8205 6.93505 19.9911 7.05358 20.1802 7.13476C20.3692 7.21594 20.5728 7.2581 20.7786 7.25873C21.1835 7.26551 21.5749 7.11277 21.8683 6.83349C22.1616 6.55421 22.3334 6.17077 22.3466 5.76595C22.3597 5.36112 22.2131 4.96736 21.9385 4.66966C21.6638 4.37197 21.2831 4.1942 20.8785 4.17473C20.6731 4.16101 20.4671 4.18918 20.2728 4.25752C20.0786 4.32586 19.9002 4.43295 19.7487 4.57228C19.5971 4.71162 19.4754 4.8803 19.391 5.06809C19.3066 5.25588 19.2612 5.45886 19.2576 5.66472L19.2565 5.66573ZM26.2166 8.00273C26.2138 7.69726 26.1207 7.39943 25.949 7.14676C25.7773 6.89408 25.5347 6.69785 25.2517 6.58277C24.9687 6.46769 24.6581 6.43891 24.3588 6.50005C24.0595 6.56119 23.7849 6.70952 23.5697 6.92636C23.3545 7.1432 23.2084 7.41885 23.1495 7.71862C23.0907 8.01838 23.1219 8.32885 23.2391 8.61093C23.3564 8.89301 23.5545 9.13409 23.8085 9.30381C24.0625 9.47354 24.361 9.56432 24.6665 9.56473C25.0792 9.56235 25.4742 9.39653 25.7649 9.10358C26.0556 8.81063 26.2183 8.41443 26.2175 8.00173L26.2166 8.00273Z" fill="white"/>
</svg>
